<mxfile host="app.diagrams.net" agent="Mozilla/5.0 (X11; Linux x86_64; rv:142.0) Gecko/20100101 Firefox/142.0" version="28.2.5">
  <diagram name="PÃ¡gina-1" id="Ufc4-Xqv4lJa3NVQfzaw">
    <mxGraphModel dx="723" dy="755" grid="1" gridSize="10" guides="1" tooltips="1" connect="1" arrows="1" fold="1" page="1" pageScale="1" pageWidth="827" pageHeight="1169" math="0" shadow="0">
      <root>
        <mxCell id="0" />
        <mxCell id="1" parent="0" />
        <mxCell id="a-7lwsuByqQ0HPVXCKsS-1" value="CLIENTES" style="swimlane;childLayout=stackLayout;horizontal=1;startSize=50;horizontalStack=0;rounded=1;fontSize=14;fontStyle=0;strokeWidth=2;resizeParent=0;resizeLast=1;shadow=0;dashed=0;align=center;arcSize=4;whiteSpace=wrap;html=1;fillColor=#1ba1e2;fontColor=#ffffff;strokeColor=#006EAF;" vertex="1" parent="1">
          <mxGeometry x="50" y="30" width="160" height="120" as="geometry" />
        </mxCell>
        <mxCell id="a-7lwsuByqQ0HPVXCKsS-2" value="&lt;div&gt;NOMBRE&lt;/div&gt;&lt;div&gt;SALDO&lt;/div&gt;&lt;div&gt;DESCUENTO&lt;/div&gt;" style="align=left;strokeColor=none;fillColor=none;spacingLeft=4;spacingRight=4;fontSize=12;verticalAlign=top;resizable=0;rotatable=0;part=1;html=1;whiteSpace=wrap;" vertex="1" parent="a-7lwsuByqQ0HPVXCKsS-1">
          <mxGeometry y="50" width="160" height="70" as="geometry" />
        </mxCell>
        <mxCell id="a-7lwsuByqQ0HPVXCKsS-3" value="ARTICULOS" style="swimlane;childLayout=stackLayout;horizontal=1;startSize=50;horizontalStack=0;rounded=1;fontSize=14;fontStyle=0;strokeWidth=2;resizeParent=0;resizeLast=1;shadow=0;dashed=0;align=center;arcSize=4;whiteSpace=wrap;html=1;fillColor=#1ba1e2;fontColor=#ffffff;strokeColor=#006EAF;" vertex="1" parent="1">
          <mxGeometry x="600" y="340" width="160" height="120" as="geometry" />
        </mxCell>
        <mxCell id="a-7lwsuByqQ0HPVXCKsS-4" value="&lt;div&gt;FABRICA QUE LO DISTRI&lt;/div&gt;&lt;div&gt;EXISTENCIAS&lt;/div&gt;&lt;div&gt;DESCRIPCION&lt;/div&gt;" style="align=left;strokeColor=none;fillColor=none;spacingLeft=4;spacingRight=4;fontSize=12;verticalAlign=top;resizable=0;rotatable=0;part=1;html=1;whiteSpace=wrap;" vertex="1" parent="a-7lwsuByqQ0HPVXCKsS-3">
          <mxGeometry y="50" width="160" height="70" as="geometry" />
        </mxCell>
        <mxCell id="a-7lwsuByqQ0HPVXCKsS-5" value="PEDIDOS" style="swimlane;childLayout=stackLayout;horizontal=1;startSize=50;horizontalStack=0;rounded=1;fontSize=14;fontStyle=0;strokeWidth=2;resizeParent=0;resizeLast=1;shadow=0;dashed=0;align=center;arcSize=4;whiteSpace=wrap;html=1;fillColor=#1ba1e2;fontColor=#ffffff;strokeColor=#006EAF;" vertex="1" parent="1">
          <mxGeometry x="460" y="40" width="160" height="120" as="geometry" />
        </mxCell>
        <mxCell id="a-7lwsuByqQ0HPVXCKsS-6" value="&lt;div&gt;DIRECION ENVIO&lt;/div&gt;&lt;div&gt;FECHA DE PEDIDO&lt;/div&gt;" style="align=left;strokeColor=none;fillColor=none;spacingLeft=4;spacingRight=4;fontSize=12;verticalAlign=top;resizable=0;rotatable=0;part=1;html=1;whiteSpace=wrap;" vertex="1" parent="a-7lwsuByqQ0HPVXCKsS-5">
          <mxGeometry y="50" width="160" height="70" as="geometry" />
        </mxCell>
        <mxCell id="a-7lwsuByqQ0HPVXCKsS-9" style="edgeStyle=orthogonalEdgeStyle;rounded=0;orthogonalLoop=1;jettySize=auto;html=1;entryX=0.5;entryY=1;entryDx=0;entryDy=0;" edge="1" parent="1" source="a-7lwsuByqQ0HPVXCKsS-7" target="a-7lwsuByqQ0HPVXCKsS-1">
          <mxGeometry relative="1" as="geometry" />
        </mxCell>
        <mxCell id="a-7lwsuByqQ0HPVXCKsS-7" value="DIRECCIONES ENVIO" style="swimlane;childLayout=stackLayout;horizontal=1;startSize=50;horizontalStack=0;rounded=1;fontSize=14;fontStyle=0;strokeWidth=2;resizeParent=0;resizeLast=1;shadow=0;dashed=0;align=center;arcSize=4;whiteSpace=wrap;html=1;fillColor=#1ba1e2;fontColor=#ffffff;strokeColor=#006EAF;" vertex="1" parent="1">
          <mxGeometry x="50" y="380" width="160" height="120" as="geometry" />
        </mxCell>
        <mxCell id="a-7lwsuByqQ0HPVXCKsS-8" value="&lt;div&gt;CALLE&lt;/div&gt;&lt;div&gt;CIUDAD&lt;/div&gt;&lt;div&gt;CP&lt;/div&gt;" style="align=left;strokeColor=none;fillColor=none;spacingLeft=4;spacingRight=4;fontSize=12;verticalAlign=top;resizable=0;rotatable=0;part=1;html=1;whiteSpace=wrap;" vertex="1" parent="a-7lwsuByqQ0HPVXCKsS-7">
          <mxGeometry y="50" width="160" height="70" as="geometry" />
        </mxCell>
        <mxCell id="a-7lwsuByqQ0HPVXCKsS-10" value="M" style="text;html=1;align=center;verticalAlign=middle;resizable=0;points=[];autosize=1;strokeColor=none;fillColor=none;" vertex="1" parent="1">
          <mxGeometry x="130" y="160" width="30" height="30" as="geometry" />
        </mxCell>
        <mxCell id="a-7lwsuByqQ0HPVXCKsS-11" value="N" style="text;html=1;align=center;verticalAlign=middle;resizable=0;points=[];autosize=1;strokeColor=none;fillColor=none;" vertex="1" parent="1">
          <mxGeometry x="130" y="340" width="30" height="30" as="geometry" />
        </mxCell>
        <mxCell id="a-7lwsuByqQ0HPVXCKsS-13" style="edgeStyle=orthogonalEdgeStyle;rounded=0;orthogonalLoop=1;jettySize=auto;html=1;entryX=0.5;entryY=0;entryDx=0;entryDy=0;" edge="1" parent="1" source="a-7lwsuByqQ0HPVXCKsS-12" target="a-7lwsuByqQ0HPVXCKsS-3">
          <mxGeometry relative="1" as="geometry" />
        </mxCell>
        <mxCell id="a-7lwsuByqQ0HPVXCKsS-14" style="edgeStyle=orthogonalEdgeStyle;rounded=0;orthogonalLoop=1;jettySize=auto;html=1;entryX=0.5;entryY=1;entryDx=0;entryDy=0;" edge="1" parent="1" source="a-7lwsuByqQ0HPVXCKsS-12" target="a-7lwsuByqQ0HPVXCKsS-6">
          <mxGeometry relative="1" as="geometry" />
        </mxCell>
        <mxCell id="a-7lwsuByqQ0HPVXCKsS-12" value="TIENE" style="rhombus;whiteSpace=wrap;html=1;fillColor=#f0a30a;fontColor=#000000;strokeColor=#BD7000;" vertex="1" parent="1">
          <mxGeometry x="580" y="220" width="90" height="80" as="geometry" />
        </mxCell>
        <mxCell id="a-7lwsuByqQ0HPVXCKsS-15" value="1" style="text;html=1;align=center;verticalAlign=middle;resizable=0;points=[];autosize=1;strokeColor=none;fillColor=none;" vertex="1" parent="1">
          <mxGeometry x="540" y="160" width="30" height="30" as="geometry" />
        </mxCell>
        <mxCell id="a-7lwsuByqQ0HPVXCKsS-16" value="N" style="text;html=1;align=center;verticalAlign=middle;resizable=0;points=[];autosize=1;strokeColor=none;fillColor=none;" vertex="1" parent="1">
          <mxGeometry x="680" y="285" width="30" height="30" as="geometry" />
        </mxCell>
        <mxCell id="a-7lwsuByqQ0HPVXCKsS-19" style="edgeStyle=orthogonalEdgeStyle;rounded=0;orthogonalLoop=1;jettySize=auto;html=1;entryX=0;entryY=0;entryDx=0;entryDy=0;" edge="1" parent="1" source="a-7lwsuByqQ0HPVXCKsS-17" target="a-7lwsuByqQ0HPVXCKsS-6">
          <mxGeometry relative="1" as="geometry" />
        </mxCell>
        <mxCell id="a-7lwsuByqQ0HPVXCKsS-17" value="HACEN" style="rhombus;whiteSpace=wrap;html=1;fillColor=#f0a30a;fontColor=#000000;strokeColor=#BD7000;" vertex="1" parent="1">
          <mxGeometry x="300" y="60" width="60" height="60" as="geometry" />
        </mxCell>
        <mxCell id="a-7lwsuByqQ0HPVXCKsS-18" style="edgeStyle=orthogonalEdgeStyle;rounded=0;orthogonalLoop=1;jettySize=auto;html=1;entryX=0;entryY=0.5;entryDx=0;entryDy=0;" edge="1" parent="1" source="a-7lwsuByqQ0HPVXCKsS-2" target="a-7lwsuByqQ0HPVXCKsS-17">
          <mxGeometry relative="1" as="geometry" />
        </mxCell>
        <mxCell id="a-7lwsuByqQ0HPVXCKsS-20" value="N" style="text;html=1;align=center;verticalAlign=middle;resizable=0;points=[];autosize=1;strokeColor=none;fillColor=none;" vertex="1" parent="1">
          <mxGeometry x="210" y="85" width="30" height="30" as="geometry" />
        </mxCell>
        <mxCell id="a-7lwsuByqQ0HPVXCKsS-21" value="M" style="text;html=1;align=center;verticalAlign=middle;resizable=0;points=[];autosize=1;strokeColor=none;fillColor=none;" vertex="1" parent="1">
          <mxGeometry x="430" y="70" width="30" height="30" as="geometry" />
        </mxCell>
        <mxCell id="a-7lwsuByqQ0HPVXCKsS-22" value="FABRICA" style="swimlane;childLayout=stackLayout;horizontal=1;startSize=50;horizontalStack=0;rounded=1;fontSize=14;fontStyle=0;strokeWidth=2;resizeParent=0;resizeLast=1;shadow=0;dashed=0;align=center;arcSize=4;whiteSpace=wrap;html=1;fillColor=#1ba1e2;fontColor=#ffffff;strokeColor=#006EAF;" vertex="1" parent="1">
          <mxGeometry x="270" y="480" width="160" height="120" as="geometry" />
        </mxCell>
        <mxCell id="a-7lwsuByqQ0HPVXCKsS-23" value="&lt;div&gt;ID FABRICA&lt;/div&gt;&lt;div&gt;TELEFONO&lt;/div&gt;&lt;div&gt;&lt;br&gt;&lt;/div&gt;" style="align=left;strokeColor=none;fillColor=none;spacingLeft=4;spacingRight=4;fontSize=12;verticalAlign=top;resizable=0;rotatable=0;part=1;html=1;whiteSpace=wrap;" vertex="1" parent="a-7lwsuByqQ0HPVXCKsS-22">
          <mxGeometry y="50" width="160" height="70" as="geometry" />
        </mxCell>
        <mxCell id="a-7lwsuByqQ0HPVXCKsS-24" value="HACE" style="rhombus;whiteSpace=wrap;html=1;fillColor=#f0a30a;fontColor=#000000;strokeColor=#BD7000;" vertex="1" parent="1">
          <mxGeometry x="540" y="530" width="75" height="80" as="geometry" />
        </mxCell>
        <mxCell id="a-7lwsuByqQ0HPVXCKsS-25" style="edgeStyle=orthogonalEdgeStyle;rounded=0;orthogonalLoop=1;jettySize=auto;html=1;entryX=0;entryY=0.5;entryDx=0;entryDy=0;" edge="1" parent="1" source="a-7lwsuByqQ0HPVXCKsS-23" target="a-7lwsuByqQ0HPVXCKsS-24">
          <mxGeometry relative="1" as="geometry" />
        </mxCell>
        <mxCell id="a-7lwsuByqQ0HPVXCKsS-26" style="edgeStyle=orthogonalEdgeStyle;rounded=0;orthogonalLoop=1;jettySize=auto;html=1;entryX=0.388;entryY=1;entryDx=0;entryDy=0;entryPerimeter=0;" edge="1" parent="1" source="a-7lwsuByqQ0HPVXCKsS-24" target="a-7lwsuByqQ0HPVXCKsS-4">
          <mxGeometry relative="1" as="geometry" />
        </mxCell>
        <mxCell id="a-7lwsuByqQ0HPVXCKsS-27" value="N" style="text;html=1;align=center;verticalAlign=middle;resizable=0;points=[];autosize=1;strokeColor=none;fillColor=none;" vertex="1" parent="1">
          <mxGeometry x="430" y="530" width="30" height="30" as="geometry" />
        </mxCell>
        <mxCell id="a-7lwsuByqQ0HPVXCKsS-28" value="M" style="text;html=1;align=center;verticalAlign=middle;resizable=0;points=[];autosize=1;strokeColor=none;fillColor=none;" vertex="1" parent="1">
          <mxGeometry x="660" y="460" width="30" height="30" as="geometry" />
        </mxCell>
        <mxCell id="a-7lwsuByqQ0HPVXCKsS-29" value="CANTIDAD" style="ellipse;whiteSpace=wrap;html=1;align=center;fillColor=#e3c800;fontColor=#000000;strokeColor=#B09500;" vertex="1" parent="1">
          <mxGeometry x="640" y="210" width="100" height="40" as="geometry" />
        </mxCell>
        <mxCell id="a-7lwsuByqQ0HPVXCKsS-30" value="STOCK" style="ellipse;whiteSpace=wrap;html=1;align=center;fillColor=#e3c800;fontColor=#000000;strokeColor=#B09500;" vertex="1" parent="1">
          <mxGeometry x="580" y="580" width="100" height="40" as="geometry" />
        </mxCell>
      </root>
    </mxGraphModel>
  </diagram>
</mxfile>
